<svg width="489" height="222" viewBox="0 0 489 222" fill="none" xmlns="http://www.w3.org/2000/svg">
<path d="M488 175.5H334" stroke="#007744" stroke-width="35"/>
<path d="M449.5 117.75H334" stroke="#FDB92E" stroke-width="35"/>
<path d="M411.337 60H334.337" stroke="#154572" stroke-width="35"/>
<path d="M5.88 85.68C5.88 81.6 6 77.84 6.24 74.4C6.56 70.96 7 67.88 7.56 65.16C8.2 62.44 8.88 60 9.6 57.84C10.4 55.6 11.36 53.68 12.48 52.08C13.6 50.4 14.72 48.96 15.84 47.76C17.04 46.48 18.44 45.44 20.04 44.64C21.64 43.76 23.16 43.08 24.6 42.6C26.12 42.04 27.84 41.64 29.76 41.4C31.68 41.08 33.48 40.88 35.16 40.8C36.92 40.64 38.92 40.56 41.16 40.56C44.04 40.56 46.52 40.64 48.6 40.8C50.76 40.96 53 41.32 55.32 41.88C57.72 42.36 59.76 43.08 61.44 44.04C63.12 45 64.8 46.24 66.48 47.76C68.24 49.2 69.68 51.08 70.8 53.4C71.92 55.64 72.92 58.28 73.8 61.32C74.68 64.28 75.32 67.84 75.72 72C76.2 76.08 76.44 80.64 76.44 85.68C76.44 91.12 76.12 96 75.48 100.32C74.92 104.56 74.16 108.24 73.2 111.36C72.24 114.4 70.92 117.04 69.24 119.28C67.64 121.44 65.92 123.2 64.08 124.56C62.32 125.84 60.16 126.88 57.6 127.68C55.04 128.4 52.48 128.88 49.92 129.12C47.44 129.36 44.52 129.48 41.16 129.48C38.2 129.48 35.6 129.4 33.36 129.24C31.2 129.08 28.92 128.76 26.52 128.28C24.2 127.8 22.2 127.12 20.52 126.24C18.84 125.28 17.16 124.08 15.48 122.64C13.8 121.12 12.4 119.28 11.28 117.12C10.16 114.88 9.16 112.32 8.28 109.44C7.48 106.48 6.88 103.04 6.48 99.12C6.08 95.12 5.88 90.64 5.88 85.68ZM22.68 85.68C22.68 90.64 22.84 94.72 23.16 97.92C23.48 101.04 24 103.72 24.72 105.96C25.52 108.2 26.68 109.88 28.2 111C29.72 112.12 31.44 112.92 33.36 113.4C35.36 113.8 37.96 114 41.16 114C46.12 114 49.84 113.28 52.32 111.84C54.8 110.4 56.64 107.68 57.84 103.68C59.04 99.6 59.64 93.6 59.64 85.68C59.64 81.12 59.48 77.24 59.16 74.04C58.92 70.76 58.44 68.04 57.72 65.88C57 63.64 56.2 61.88 55.32 60.6C54.52 59.32 53.36 58.36 51.84 57.72C50.32 57 48.76 56.56 47.16 56.4C45.64 56.16 43.64 56.04 41.16 56.04C39.08 56.04 37.36 56.12 36 56.28C34.72 56.36 33.32 56.6 31.8 57C30.36 57.4 29.2 58.04 28.32 58.92C27.52 59.72 26.68 60.84 25.8 62.28C25 63.72 24.4 65.52 24 67.68C23.6 69.76 23.28 72.28 23.04 75.24C22.8 78.2 22.68 81.68 22.68 85.68ZM79.9078 129V65.28H93.3478L96.7078 72.12C98.7078 70.6 100.108 69.6 100.908 69.12C101.788 68.56 103.148 67.8 104.988 66.84C106.828 65.8 108.668 65.12 110.508 64.8C112.428 64.4 114.548 64.2 116.868 64.2C129.588 64.2 135.948 71.64 135.948 86.52V129H119.148V86.28C119.148 83.24 118.508 81.04 117.228 79.68C116.028 78.32 114.308 77.64 112.068 77.64C109.828 77.64 107.828 77.88 106.068 78.36C104.388 78.76 102.828 79.36 101.388 80.16C100.028 80.88 98.4678 81.88 96.7078 83.16V129H79.9078ZM141.684 129V41.16H158.724L193.524 97.92V41.16H210.324V129H193.524L158.604 72.84V129H141.684ZM214.253 96.84C214.253 91.32 214.573 86.72 215.213 83.04C215.933 79.28 216.933 76.2 218.213 73.8C219.493 71.32 221.293 69.44 223.613 68.16C225.933 66.88 228.493 66 231.293 65.52C234.173 65.04 237.773 64.8 242.093 64.8C244.973 64.8 247.413 64.88 249.413 65.04C251.413 65.12 253.413 65.36 255.413 65.76C257.493 66.08 259.173 66.6 260.453 67.32C261.733 67.96 262.973 68.88 264.173 70.08C265.373 71.2 266.293 72.6 266.933 74.28C267.653 75.88 268.173 77.84 268.493 80.16C268.893 82.4 269.093 85 269.093 87.96C269.093 93.56 267.613 97.64 264.653 100.2C261.693 102.76 257.253 104.04 251.333 104.04H231.053C231.053 107.72 231.573 110.48 232.613 112.32C233.733 114.08 235.093 115.16 236.693 115.56C238.373 115.96 240.973 116.16 244.493 116.16C254.333 116.16 262.133 115.72 267.893 114.84V126.24C261.893 128.48 251.013 129.6 235.253 129.6C231.173 129.6 227.773 129 225.053 127.8C222.413 126.6 220.293 124.64 218.693 121.92C217.093 119.2 215.933 115.84 215.213 111.84C214.573 107.84 214.253 102.84 214.253 96.84ZM231.053 91.92H247.013C250.533 91.92 252.293 90.32 252.293 87.12C252.293 83.12 251.733 80.56 250.613 79.44C249.573 78.24 247.053 77.64 243.053 77.64C240.493 77.64 238.573 77.76 237.293 78C236.093 78.16 234.893 78.72 233.693 79.68C232.573 80.56 231.813 81.96 231.413 83.88C231.093 85.8 230.973 88.48 231.053 91.92ZM268.659 78V68.64L278.979 65.16L281.739 47.4H295.779V65.16H310.059V78H295.779V103.56C295.779 106.52 296.019 108.92 296.499 110.76C296.979 112.52 297.579 113.76 298.299 114.48C299.019 115.12 299.979 115.68 301.179 116.16C305.979 117.84 308.659 118.68 309.219 118.68V129H294.579C289.619 129 285.779 127.24 283.059 123.72C280.339 120.12 278.979 114.28 278.979 106.2V78H268.659Z" fill="#154572"/>
<path d="M125.04 191L139.86 147.08H149.4L163.68 191H154.74L151.62 181.28H137.22L134.04 191H125.04ZM139.44 173.84H149.64L144.72 158.12L139.44 173.84ZM163.643 184.88C163.643 183.52 163.943 182.34 164.543 181.34C165.183 180.3 166.123 179.58 167.363 179.18C167.043 178.98 166.743 178.74 166.463 178.46C166.183 178.18 165.923 177.88 165.683 177.56C165.483 177.24 165.283 176.9 165.083 176.54C164.923 176.14 164.763 175.74 164.603 175.34C164.483 174.94 164.363 174.54 164.243 174.14C164.163 173.7 164.083 173.28 164.003 172.88C163.963 172.44 163.923 172.02 163.883 171.62C163.883 171.18 163.883 170.76 163.883 170.36C163.883 162.8 167.563 159.02 174.923 159.02H194.303V164.06L190.763 165.14C190.763 165.14 190.823 165.3 190.943 165.62C191.063 165.9 191.123 166.08 191.123 166.16C191.163 166.2 191.223 166.36 191.303 166.64C191.423 166.92 191.503 167.14 191.543 167.3C191.583 167.46 191.623 167.7 191.663 168.02C191.743 168.34 191.783 168.66 191.783 168.98C191.823 169.26 191.863 169.62 191.903 170.06C191.943 170.46 191.963 170.9 191.963 171.38C191.963 171.98 191.923 172.58 191.843 173.18C191.763 173.74 191.643 174.34 191.483 174.98C191.323 175.62 191.103 176.22 190.823 176.78C190.583 177.34 190.263 177.9 189.863 178.46C189.463 178.98 188.983 179.46 188.423 179.9C187.863 180.34 187.223 180.72 186.503 181.04C185.823 181.36 185.003 181.62 184.043 181.82C183.123 181.98 182.123 182.06 181.043 182.06H173.663C173.223 182.06 172.863 182.08 172.583 182.12C172.303 182.16 172.003 182.3 171.683 182.54C171.403 182.74 171.263 183.04 171.263 183.44C171.263 184.08 171.463 184.52 171.863 184.76C172.303 184.96 172.903 185.06 173.663 185.06H183.443C186.403 185.06 188.703 185.86 190.343 187.46C192.023 189.02 192.863 191.38 192.863 194.54V197.96C192.863 198.56 192.823 199.12 192.743 199.64C192.663 200.2 192.543 200.76 192.383 201.32C192.263 201.88 192.063 202.4 191.783 202.88C191.503 203.4 191.183 203.88 190.823 204.32C190.463 204.76 190.023 205.14 189.503 205.46C188.983 205.82 188.403 206.12 187.763 206.36C187.123 206.64 186.383 206.84 185.543 206.96C184.743 207.12 183.863 207.2 182.903 207.2H173.903C171.943 207.2 170.223 206.88 168.743 206.24C167.303 205.6 166.143 204.56 165.263 203.12C164.383 201.72 163.943 200 163.943 197.96V193.94L166.763 191C166.323 190.76 165.923 190.46 165.563 190.1C165.203 189.7 164.863 189.24 164.543 188.72C164.263 188.2 164.043 187.62 163.883 186.98C163.723 186.3 163.643 185.6 163.643 184.88ZM172.403 196.94C172.403 197.7 172.483 198.32 172.643 198.8C172.843 199.28 173.123 199.64 173.483 199.88C173.883 200.12 174.263 200.28 174.623 200.36C175.023 200.44 175.543 200.48 176.183 200.48H181.103C181.863 200.48 182.463 200.38 182.903 200.18C183.383 200.02 183.723 199.78 183.923 199.46C184.163 199.14 184.323 198.8 184.403 198.44C184.483 198.08 184.523 197.64 184.523 197.12V194.78C184.523 194.54 184.503 194.32 184.463 194.12C184.423 193.92 184.383 193.72 184.343 193.52C184.303 193.36 184.223 193.2 184.103 193.04C184.023 192.92 183.923 192.78 183.803 192.62C183.683 192.5 183.543 192.4 183.383 192.32C183.223 192.24 183.043 192.16 182.843 192.08C182.643 192 182.423 191.94 182.183 191.9C181.943 191.86 181.683 191.84 181.403 191.84H174.923L172.403 191.66V196.94ZM172.283 170.36C172.283 173.64 173.563 175.28 176.123 175.28H179.483C182.243 175.28 183.603 173.64 183.563 170.36C183.523 168.68 183.183 167.5 182.543 166.82C181.943 166.1 180.903 165.74 179.423 165.74H176.243C175.403 165.74 174.703 165.88 174.143 166.16C173.623 166.4 173.223 166.76 172.943 167.24C172.703 167.68 172.523 168.14 172.403 168.62C172.323 169.1 172.283 169.68 172.283 170.36ZM194.337 174.92C194.337 172.16 194.497 169.86 194.817 168.02C195.177 166.14 195.677 164.6 196.317 163.4C196.957 162.16 197.857 161.22 199.017 160.58C200.177 159.94 201.457 159.5 202.857 159.26C204.297 159.02 206.097 158.9 208.257 158.9C209.697 158.9 210.917 158.94 211.917 159.02C212.917 159.06 213.917 159.18 214.917 159.38C215.957 159.54 216.797 159.8 217.437 160.16C218.077 160.48 218.697 160.94 219.297 161.54C219.897 162.1 220.357 162.8 220.677 163.64C221.037 164.44 221.297 165.42 221.457 166.58C221.657 167.7 221.757 169 221.757 170.48C221.757 173.28 221.017 175.32 219.537 176.6C218.057 177.88 215.837 178.52 212.877 178.52H202.737C202.737 180.36 202.997 181.74 203.517 182.66C204.077 183.54 204.757 184.08 205.557 184.28C206.397 184.48 207.697 184.58 209.457 184.58C214.377 184.58 218.277 184.36 221.157 183.92V189.62C218.157 190.74 212.717 191.3 204.837 191.3C202.797 191.3 201.097 191 199.737 190.4C198.417 189.8 197.357 188.82 196.557 187.46C195.757 186.1 195.177 184.42 194.817 182.42C194.497 180.42 194.337 177.92 194.337 174.92ZM202.737 172.46H210.717C212.477 172.46 213.357 171.66 213.357 170.06C213.357 168.06 213.077 166.78 212.517 166.22C211.997 165.62 210.737 165.32 208.737 165.32C207.457 165.32 206.497 165.38 205.857 165.5C205.257 165.58 204.657 165.86 204.057 166.34C203.497 166.78 203.117 167.48 202.917 168.44C202.757 169.4 202.697 170.74 202.737 172.46ZM223.341 191V159.14H230.061L231.741 162.56C232.741 161.8 233.441 161.3 233.841 161.06C234.281 160.78 234.961 160.4 235.881 159.92C236.801 159.4 237.721 159.06 238.641 158.9C239.601 158.7 240.661 158.6 241.821 158.6C248.181 158.6 251.361 162.32 251.361 169.76V191H242.961V169.64C242.961 168.12 242.641 167.02 242.001 166.34C241.401 165.66 240.541 165.32 239.421 165.32C238.301 165.32 237.301 165.44 236.421 165.68C235.581 165.88 234.801 166.18 234.081 166.58C233.401 166.94 232.621 167.44 231.741 168.08V191H223.341ZM252.849 175.22C252.849 173.02 252.929 171.14 253.089 169.58C253.249 167.98 253.549 166.46 253.989 165.02C254.429 163.58 255.029 162.42 255.789 161.54C256.549 160.66 257.549 159.96 258.789 159.44C260.029 158.92 261.509 158.66 263.229 158.66C264.149 158.66 265.169 158.74 266.289 158.9C267.409 159.06 268.549 159.3 269.709 159.62C270.909 159.94 271.969 160.32 272.889 160.76V143.9H281.289V191H274.329L272.889 187.76C271.729 188.72 270.269 189.56 268.509 190.28C266.749 191 264.989 191.36 263.229 191.36C262.469 191.36 261.749 191.3 261.069 191.18C260.389 191.06 259.749 190.88 259.149 190.64C258.589 190.4 258.049 190.12 257.529 189.8C257.049 189.44 256.609 189.02 256.209 188.54C255.809 188.06 255.429 187.56 255.069 187.04C254.749 186.48 254.469 185.88 254.229 185.24C253.989 184.56 253.769 183.86 253.569 183.14C253.409 182.38 253.269 181.58 253.149 180.74C253.069 179.86 252.989 178.98 252.909 178.1C252.869 177.18 252.849 176.22 252.849 175.22ZM261.249 174.92C261.249 178.32 261.589 180.72 262.269 182.12C262.949 183.48 264.009 184.16 265.449 184.16C266.929 184.16 268.289 184 269.529 183.68C270.809 183.32 271.929 182.84 272.889 182.24V166.46C272.329 166.22 271.749 166.04 271.149 165.92C270.589 165.76 270.009 165.64 269.409 165.56C268.809 165.44 268.169 165.36 267.489 165.32C266.849 165.28 266.169 165.26 265.449 165.26C264.849 165.26 264.349 165.34 263.949 165.5C263.549 165.62 263.169 165.9 262.809 166.34C262.449 166.74 262.149 167.3 261.909 168.02C261.709 168.7 261.549 169.62 261.429 170.78C261.309 171.9 261.249 173.28 261.249 174.92ZM282.769 182.9V179.9C282.769 178.66 282.929 177.54 283.249 176.54C283.609 175.54 284.149 174.62 284.869 173.78C285.589 172.94 286.549 172.3 287.749 171.86C288.989 171.38 290.449 171.14 292.129 171.14C293.689 171.14 295.229 171.16 296.749 171.2C298.309 171.2 299.889 171.18 301.489 171.14C301.529 169.82 301.529 169.14 301.489 169.1C301.489 168.26 301.389 167.58 301.189 167.06C301.029 166.54 300.749 166.14 300.349 165.86C299.949 165.58 299.509 165.4 299.029 165.32C298.549 165.24 297.949 165.2 297.229 165.2C294.629 165.2 290.169 165.42 283.849 165.86V160.7C287.409 159.3 292.249 158.58 298.369 158.54C302.049 158.54 304.889 159.32 306.889 160.88C308.889 162.4 309.889 165.04 309.889 168.8V191H303.229L301.489 187.52C301.329 187.8 300.809 188.24 299.929 188.84C299.089 189.4 297.889 189.98 296.329 190.58C294.769 191.14 293.249 191.4 291.769 191.36C288.889 191.28 286.669 190.42 285.109 188.78C283.549 187.1 282.769 185.14 282.769 182.9ZM291.169 181.7C291.169 182.9 291.429 183.7 291.949 184.1C292.469 184.46 293.209 184.64 294.169 184.64C294.649 184.64 295.149 184.6 295.669 184.52C296.189 184.4 296.669 184.28 297.109 184.16C297.589 184 298.049 183.84 298.489 183.68C298.929 183.48 299.329 183.3 299.689 183.14C300.049 182.94 300.349 182.78 300.589 182.66C300.869 182.5 301.089 182.38 301.249 182.3C301.409 182.18 301.489 182.12 301.489 182.12V176.3L293.749 176.9C293.229 176.94 292.789 177.08 292.429 177.32C292.069 177.52 291.789 177.78 291.589 178.1C291.429 178.42 291.309 178.74 291.229 179.06C291.189 179.38 291.169 179.74 291.169 180.14V181.7Z" fill="#154572"/>
</svg>
